<svg>
<symbol id="close" width="12.000000" height="12.000000" viewBox="0 0 12 12" fill="none" xmlns="http://www.w3.org/2000/svg" xmlns:xlink="http://www.w3.org/1999/xlink">
	<desc>
			Created with Pixso.
	</desc>
	<defs/>
	<path id="Vector" d="M12 1.04L10.95 0L6 4.95L1.04 0L0 1.04L4.95 6L0 10.95L1.04 12L6 7.04L10.95 12L12 10.95L7.04 6L12 1.04Z" fill="#FFFFFF" fill-opacity="1.000000" fill-rule="nonzero"/>
	<path id="Vector" d="M7.75 5.29L11.29 1.75L12 1.04L11.66 0.7L11.29 0.33L10.95 0L10.25 0.7L6.7 4.24L6 4.95L5.29 4.24L1.75 0.7L1.04 0L0.7 0.33L0.33 0.7L0 1.04L0.7 1.75L4.25 5.29L4.95 6L0.7 10.24L0 10.95L0.33 11.29L0.7 11.66L1.04 12L1.75 11.29L5.29 7.75L6 7.04L6.7 7.75L10.25 11.29L10.95 12L12 10.95L7.75 6.7L7.04 6L7.75 5.29Z" fill="#FFFFFF" fill-opacity="1.000000" fill-rule="evenodd"/>
</symbol>

</svg>