<svg width="9.000000" height="16.000000" viewBox="0 0 9 16" fill="none" xmlns="http://www.w3.org/2000/svg" xmlns:xlink="http://www.w3.org/1999/xlink">
	<desc>
			Created with Pixso.
	</desc>
	<defs/>
	<path id="Vector" d="M8.66 -0.88L6.5 -0.88C4.07 -0.88 2.5 0.74 2.5 3.24L2.5 5.14L0.33 5.14C0.14 5.14 -0.01 5.3 -0.01 5.49L-0.01 8.24C-0.01 8.43 0.14 8.58 0.33 8.58L2.5 8.58L2.5 15.53C2.5 15.72 2.65 15.87 2.84 15.87L5.67 15.87C5.86 15.87 6.01 15.72 6.01 15.53L6.01 8.58L8.55 8.58C8.74 8.58 8.89 8.43 8.89 8.24L8.89 5.49C8.89 5.39 8.86 5.31 8.8 5.24C8.73 5.18 8.64 5.14 8.55 5.14L6.01 5.14L6.01 3.53C6.01 2.76 6.2 2.37 7.2 2.37L8.66 2.37C8.84 2.37 9 2.21 9 2.02L9 -0.53C9 -0.72 8.84 -0.88 8.66 -0.88Z" fill="#E9862A" fill-opacity="1.000000" fill-rule="nonzero"/>
</svg>
