<svg width="15.000000" height="16.000000" viewBox="0 0 15 16" fill="none" xmlns="http://www.w3.org/2000/svg" xmlns:xlink="http://www.w3.org/1999/xlink">
	<desc>
			Created with Pixso.
	</desc>
	<defs/>
	<path id="Vector" d="M14.89 3.1C14.69 1.51 13.83 0.5 12.32 0.17C11.69 0.04 11.04 0 10.4 -0.01C8.47 -0.03 6.54 -0.02 4.61 -0.01C4.11 -0.01 3.62 0.03 3.12 0.09C2.13 0.21 1.28 0.6 0.69 1.46C0.26 2.1 0.09 2.83 0.07 3.59C0.02 4.89 0.01 6.18 -0.02 7.48C-0.01 7.48 0 7.48 0.01 7.48C0.01 8.28 0 9.07 0.01 9.87C0.03 10.54 0.05 11.22 0.12 11.89C0.3 13.48 1.17 14.49 2.68 14.82C3.31 14.95 3.96 14.99 4.61 15C6.53 15.02 8.44 15.01 10.37 15C10.87 15 11.38 14.96 11.88 14.9C13.47 14.71 14.48 13.84 14.8 12.33C14.94 11.7 14.97 11.04 14.98 10.4C15 8.47 15 6.55 14.98 4.62C14.98 4.11 14.94 3.61 14.89 3.1ZM7.5 12.22C4.92 12.21 2.8 10.08 2.8 7.5C2.8 4.91 4.91 2.78 7.49 2.77C10.07 2.77 12.2 4.89 12.21 7.48C12.22 10.08 10.08 12.22 7.5 12.22ZM12.39 3.7C11.8 3.7 11.29 3.2 11.29 2.6C11.28 2 11.78 1.5 12.38 1.5C12.99 1.49 13.48 1.98 13.48 2.59C13.49 3.19 13 3.69 12.39 3.7ZM7.53 4.44C5.84 4.42 4.48 5.76 4.46 7.46C4.44 9.15 5.77 10.53 7.46 10.55C9.16 10.57 10.53 9.23 10.55 7.52C10.56 5.83 9.22 4.46 7.53 4.44Z" fill="#E9862A" fill-opacity="1.000000" fill-rule="evenodd"/>
</svg>
