<svg width="11.000000" height="17.000000" viewBox="0 0 11 17" fill="none" xmlns="http://www.w3.org/2000/svg" xmlns:xlink="http://www.w3.org/1999/xlink">
	<desc>
			Created with Pixso.
	</desc>
	<defs/>
	<path id="Vector" d="M4.59 11.79C3.17 11.65 1.89 11.31 0.8 10.49C0.66 10.39 0.52 10.29 0.4 10.17C-0.08 9.73 -0.13 9.22 0.25 8.7C0.57 8.25 1.12 8.13 1.68 8.39C1.8 8.44 1.9 8.5 2 8.57C4.04 9.92 6.85 9.96 8.9 8.63C9.1 8.48 9.32 8.36 9.57 8.3C10.06 8.18 10.52 8.35 10.78 8.76C11.08 9.23 11.08 9.69 10.71 10.05C10.14 10.61 9.46 11.02 8.7 11.3C7.98 11.57 7.2 11.7 6.42 11.79C6.54 11.91 6.59 11.97 6.67 12.04C7.72 13.06 8.78 14.08 9.83 15.1C10.19 15.45 10.26 15.88 10.07 16.28C9.85 16.72 9.37 17.01 8.9 16.98C8.6 16.96 8.36 16.82 8.16 16.62C7.36 15.85 6.55 15.09 5.77 14.31C5.54 14.08 5.43 14.13 5.23 14.32C4.43 15.12 3.62 15.9 2.8 16.67C2.43 17.02 2 17.08 1.57 16.88C1.11 16.67 0.83 16.23 0.85 15.78C0.86 15.48 1.02 15.25 1.23 15.04C2.28 14.04 3.32 13.04 4.36 12.03C4.43 11.97 4.49 11.89 4.59 11.79Z" fill="#E9862A" fill-opacity="1.000000" fill-rule="nonzero"/>
	<path id="Vector" d="M5.46 8.3C2.92 8.3 0.85 6.28 0.86 3.84C0.88 1.37 2.96 -0.61 5.51 -0.61C8.08 -0.6 10.14 1.42 10.12 3.91C10.11 6.34 8.02 8.31 5.46 8.3ZM7.76 3.85C7.76 2.63 6.75 1.67 5.5 1.67C4.23 1.67 3.21 2.65 3.23 3.87C3.23 5.08 4.25 6.03 5.51 6.03C6.76 6.03 7.76 5.06 7.76 3.85Z" fill="#E9862A" fill-opacity="1.000000" fill-rule="nonzero"/>
</svg>
