<svg width="20.000000" height="11.000000" viewBox="0 0 20 11" fill="none" xmlns="http://www.w3.org/2000/svg" xmlns:xlink="http://www.w3.org/1999/xlink">
	<desc>
			Created with Pixso.
	</desc>
	<defs/>
	<path id="Vector" d="M17.21 6.36C17.87 6.93 18.57 7.47 19.17 8.1C19.43 8.38 19.68 8.67 19.87 9C20.14 9.46 19.9 9.97 19.43 10L16.51 9.99C15.76 10.05 15.16 9.78 14.65 9.33C14.25 8.96 13.87 8.58 13.48 8.2C13.33 8.05 13.16 7.9 12.96 7.79C12.56 7.56 12.22 7.63 11.99 8C11.76 8.37 11.71 8.78 11.68 9.2C11.65 9.81 11.44 9.97 10.75 9.99C9.28 10.06 7.88 9.86 6.58 9.2C5.44 8.62 4.55 7.8 3.77 6.88C2.26 5.07 1.11 3.09 0.08 1.05C-0.16 0.59 0.01 0.34 0.58 0.33C1.54 0.32 2.49 0.32 3.44 0.33C3.83 0.34 4.08 0.53 4.23 0.86C4.75 1.98 5.38 3.04 6.17 4.03C6.38 4.29 6.6 4.56 6.9 4.74C7.24 4.95 7.5 4.88 7.66 4.55C7.76 4.33 7.8 4.11 7.82 3.88C7.9 3.1 7.91 2.32 7.78 1.55C7.69 1.06 7.39 0.75 6.84 0.66C6.56 0.61 6.6 0.52 6.74 0.38C6.97 0.14 7.19 -0.02 7.63 -0.02L10.93 -0.02C11.45 0.07 11.56 0.28 11.64 0.74L11.64 3.98C11.63 4.16 11.74 4.69 12.1 4.81C12.39 4.89 12.58 4.69 12.76 4.52C13.55 3.78 14.11 2.91 14.62 2C14.84 1.6 15.03 1.19 15.22 0.77C15.35 0.47 15.57 0.32 15.96 0.32L19.14 0.33C19.23 0.33 19.32 0.33 19.41 0.34C19.95 0.42 20.1 0.62 19.93 1.09C19.67 1.81 19.16 2.42 18.67 3.02C18.14 3.67 17.57 4.29 17.05 4.95C16.57 5.54 16.6 5.84 17.21 6.36Z" fill="#E9862A" fill-opacity="1.000000" fill-rule="nonzero"/>
</svg>
